<svg xmlns="http://www.w3.org/2000/svg" width="512" height="512" viewBox="0 0 512 512">
  <rect width="512" height="512" rx="104" fill="#122b3d"/>
  <!-- abstract landmass -->
  <path d="M132 340c-28-38-24-96 8-130s84-40 122-22c20-40 74-52 112-28s50 78 26 116c26 10 40 40 30 66-10 28-42 42-70 32-8 22-32 36-56 32-18-2-34-14-42-30-14 12-34 16-52 10-22-6-38-26-40-46z" fill="#2e8f6b"/>
  <!-- pin -->
  <path d="M256 118c-46 0-84 37-84 83 0 62 84 145 84 145s84-83 84-145c0-46-38-83-84-83z" fill="#f5b942"/>
  <circle cx="256" cy="199" r="34" fill="#122b3d"/>
</svg>
