<svg xmlns="http://www.w3.org/2000/svg" width="512" height="512" viewBox="0 0 512 512">
  <rect width="512" height="512" rx="104" fill="#122b3d"/>
  <!-- clapperboard -->
  <g transform="rotate(-8 256 256)">
    <path d="M96 176 L416 176 L416 396 Q416 416 396 416 L116 416 Q96 416 96 396 Z" fill="#2e8f6b"/>
    <path d="M90 118 Q88 100 106 96 L400 74 Q418 72 420 90 L426 148 L96 172 Z" fill="#f5b942"/>
    <g fill="#122b3d">
      <path d="M136 100 L176 96 L152 148 L112 152 Z"/>
      <path d="M216 94 L256 90 L232 142 L192 146 Z"/>
      <path d="M296 88 L336 84 L312 136 L272 140 Z"/>
      <path d="M376 82 L416 78 L392 130 L352 134 Z"/>
    </g>
    <rect x="128" y="230" width="256" height="22" rx="11" fill="#c8d6e5" opacity="0.85"/>
    <rect x="128" y="292" width="196" height="22" rx="11" fill="#c8d6e5" opacity="0.55"/>
  </g>
</svg>
